# xmcd
#
# Track frame offsets: 
#        150
#        20500
#        38378
#        55650
#        76708
#        93187
#        111782
#        134788
#        154211
#        176007
#        195179
#        212565
#        232262
#        248315
#        262235
#        280159
#        298821
#        316820
#        336870
#
# Disc length: 4743 seconds
#
# Revision: 1
# Processed by: cddbd v1.5.2PL0 Copyright (c) Steve Scherf et al.
# Submitted via: ExactAudioCopy v1.0b3
#
DISCID=05128513
DTITLE=Southside Johnny and The Asbury Jukes - Jukebox - Disc 1 Of 5
DYEAR=2007
DGENRE=
TTITLE0=When The Doors Are Closed (Live)
TTITLE1=Hitchhike (Live)
TTITLE2=I Don't Want To Go Home (Demo)
TTITLE3=Fever (Demo)
TTITLE4=Sweeter Than Honey (Demo)
TTITLE5=Without Love (Live)
TTITLE6=Got To Get You Off My Mind (Live)
TTITLE7=This Time It's For Real (Live)
TTITLE8=Love On The Wrong Side Of Town (Live)
TTITLE9=She Got Me Where She Wants Me (Live)
TTITLE10=It Ain't The Meat (It's The Motion) (Live)
TTITLE11=When You Dance (Live)
TTITLE12=Got To Be A Better Way (Demo)
TTITLE13=All I Want Is Everything (Demo)
TTITLE14=I Remember Last Night (Demo)
TTITLE15=The Time (Demo)
TTITLE16=Where Can I Go From Here (Demo)
TTITLE17=Wait In Vain (Demo)
TTITLE18=Paris (Demo)
EXTD=submitted by Francesco Magni
EXTT0=
EXTT1=
EXTT2=
EXTT3=
EXTT4=
EXTT5=
EXTT6=
EXTT7=
EXTT8=
EXTT9=
EXTT10=
EXTT11=
EXTT12=
EXTT13=
EXTT14=
EXTT15=
EXTT16=
EXTT17=
EXTT18=
PLAYORDER=
